<svg width="62" height="62" viewBox="0 0 62 62" fill="none" xmlns="http://www.w3.org/2000/svg">
<g filter="url(#filter0_d_1_155)">
<path d="M37.8132 33.1C36.3565 33.1 35.1746 31.9233 35.1746 30.4768C35.1746 29.0304 36.3575 27.8518 37.8114 27.8518C39.2653 27.8518 40.45 29.0286 40.45 30.475C40.45 31.9214 39.2662 33.1 37.8132 33.1ZM37.8132 29.2267C37.1218 29.2267 36.5575 29.7862 36.5575 30.4741C36.5575 31.162 37.1199 31.7215 37.8114 31.7215C38.5028 31.7215 39.0671 31.162 39.0671 30.4741C39.0671 29.7862 38.5047 29.2267 37.8132 29.2267ZM31 33.1C29.5452 33.1 28.3632 31.9233 28.3632 30.4768C28.3632 29.0304 29.5433 27.85 31 27.85C32.4567 27.85 33.6368 29.0258 33.6368 30.4732C33.6368 31.9205 32.4548 33.0982 31 33.0982V33.1ZM31 29.2267C30.3085 29.2267 29.7461 29.7862 29.7461 30.4741C29.7461 31.162 30.3085 31.7233 31 31.7233C31.6915 31.7233 32.2539 31.1638 32.2539 30.4759C32.2539 29.788 31.6915 29.2258 31 29.2258V29.2267ZM24.1868 33.1C22.7329 33.1 21.55 31.9233 21.55 30.4768C21.55 29.0304 22.7338 27.8518 24.1868 27.8518C25.6398 27.8518 26.8254 29.0286 26.8254 30.475C26.8254 31.9214 25.6425 33.1 24.1886 33.1H24.1868ZM24.1868 29.2267C23.4953 29.2267 22.9329 29.7862 22.9329 30.4741C22.9329 31.162 23.4953 31.7215 24.1868 31.7215C24.8782 31.7215 25.4425 31.162 25.4425 30.4741C25.4425 29.7862 24.8801 29.2267 24.1886 29.2267H24.1868Z" fill="#C56D48"/>
<circle cx="31" cy="31" r="20.5" stroke="#ABB9BA"/>
</g>
<defs>
<filter id="filter0_d_1_155" x="0" y="0" width="62" height="62" filterUnits="userSpaceOnUse" color-interpolation-filters="sRGB">
<feFlood flood-opacity="0" result="BackgroundImageFix"/>
<feColorMatrix in="SourceAlpha" type="matrix" values="0 0 0 0 0 0 0 0 0 0 0 0 0 0 0 0 0 0 127 0" result="hardAlpha"/>
<feOffset/>
<feGaussianBlur stdDeviation="5"/>
<feColorMatrix type="matrix" values="0 0 0 0 0 0 0 0 0 0 0 0 0 0 0 0 0 0 0.06 0"/>
<feBlend mode="normal" in2="BackgroundImageFix" result="effect1_dropShadow_1_155"/>
<feBlend mode="normal" in="SourceGraphic" in2="effect1_dropShadow_1_155" result="shape"/>
</filter>
</defs>
</svg>
