<svg width="390" height="14" viewBox="0 0 390 14" fill="none" xmlns="http://www.w3.org/2000/svg">
<path d="M8.40765 0.00679768L5.48925 0H5.48784C2.41043 0 0 2.32957 0 5.30356C0 8.08925 2.24157 10.202 5.25214 10.3135V12.9156C5.25214 12.989 5.2831 13.11 5.33657 13.1896C5.43648 13.3425 5.60674 13.4254 5.78123 13.4254C5.87832 13.4254 5.97611 13.3996 6.06406 13.3452C6.2498 13.231 10.6183 10.531 11.7545 9.60242C13.0927 8.50799 13.8934 6.90373 13.8955 5.31171V5.30016C13.8913 2.33161 11.4822 0.00679757 8.40765 0.0061178V0.00679768ZM11.0721 8.82476C10.2742 9.47734 7.65131 11.1394 6.3075 11.9809V9.8145C6.3075 9.53308 6.0718 9.30468 5.77982 9.30468H5.50121C2.92614 9.30468 1.05606 7.62157 1.05606 5.30356C1.05606 2.90125 3.00354 1.01965 5.48854 1.01965L8.40624 1.02645H8.40765C10.8927 1.02645 12.8401 2.90669 12.8415 5.30628C12.8394 6.60463 12.1788 7.91931 11.0728 8.82476H11.0721Z" fill="#C56D48"/>
<path d="M140.646 9.07546C140.431 8.87739 140.083 8.87739 139.868 9.07546L138.238 10.5761V3.65407C138.238 2.25613 137.003 1.11913 135.486 1.11913H131.192C130.888 1.11913 130.641 1.34626 130.641 1.62612C130.641 1.90598 130.888 2.13311 131.192 2.13311H135.486C136.396 2.13311 137.137 2.81585 137.137 3.65407V10.5761L135.508 9.07546C135.293 8.87739 134.944 8.87739 134.73 9.07546C134.515 9.27352 134.514 9.59461 134.73 9.792L137.299 12.1579C137.405 12.2573 137.546 12.3067 137.688 12.3067C137.829 12.3067 137.969 12.258 138.077 12.1579L140.646 9.792C140.862 9.59461 140.862 9.27352 140.646 9.07546ZM132.821 11.2927H128.527C127.617 11.2927 126.876 10.6099 126.876 9.77172V2.84965L128.505 4.35033C128.614 4.4497 128.755 4.49905 128.896 4.49905C129.037 4.49905 129.178 4.4497 129.285 4.35033C129.5 4.15227 129.5 3.83118 129.285 3.63379L126.716 1.26785C126.501 1.06911 126.152 1.06911 125.938 1.26785L123.369 3.63379C123.153 3.83118 123.153 4.15227 123.369 4.35033C123.584 4.54839 123.932 4.54839 124.147 4.35033L125.776 2.84965V9.77172C125.776 11.1697 127.011 12.3067 128.529 12.3067H132.823C133.127 12.3067 133.373 12.0795 133.373 11.7997C133.373 11.5198 133.126 11.2927 132.823 11.2927H132.821Z" fill="#C56D48"/>
<path d="M257.53 13.4255H257.52C255.615 13.3914 250.119 8.61149 250.119 4.08429C250.119 1.90942 251.981 1.52974e-05 254.103 1.52974e-05C255.792 1.52974e-05 256.928 1.12152 257.53 1.93781C258.13 1.12294 259.266 1.52974e-05 260.955 1.52974e-05C263.079 1.52974e-05 264.941 1.90942 264.941 4.085C264.941 8.61078 259.443 13.3907 257.538 13.424H257.53V13.4255ZM254.104 1.06545C252.57 1.06545 251.226 2.47656 251.226 4.08571C251.226 8.16005 256.413 12.3167 257.531 12.3607C258.651 12.3167 263.837 8.16076 263.837 4.08571C263.837 2.47656 262.492 1.06545 260.958 1.06545C259.094 1.06545 258.052 3.14946 258.044 3.17005C257.874 3.56896 257.191 3.56896 257.021 3.17005C257.01 3.14875 255.97 1.06545 254.105 1.06545H254.104Z" fill="#C56D48"/>
<path fill-rule="evenodd" clip-rule="evenodd" d="M383.42 0.150383L386.894 3.57173C387.098 3.77222 387.098 4.09656 386.894 4.29705C386.793 4.39832 386.66 4.44759 386.526 4.44759C386.393 4.44759 386.259 4.39764 386.158 4.29705L383.573 1.75157V8.72427C383.573 9.00755 383.34 9.23747 383.052 9.23747C382.765 9.23747 382.531 9.00755 382.531 8.72427V1.75157L379.947 4.29705C379.743 4.49822 379.414 4.49686 379.21 4.29705C379.006 4.09724 379.006 3.77222 379.21 3.57173L382.684 0.150383C382.887 -0.0501074 383.217 -0.0501074 383.42 0.150383ZM377.697 13.4758H388.408C389.286 13.4758 390 12.7724 390 11.9074V8.03994C390 7.75665 389.767 7.52674 389.479 7.52674C389.191 7.52674 388.958 7.75665 388.958 8.03994V11.9074C388.958 12.2065 388.711 12.4494 388.408 12.4494H377.697C377.393 12.4494 377.147 12.2065 377.147 11.9074V8.03994C377.147 7.75665 376.913 7.52674 376.626 7.52674C376.338 7.52674 376.105 7.75665 376.105 8.03994V11.9074C376.105 12.7724 376.819 13.4758 377.697 13.4758Z" fill="#C56D48"/>
</svg>
