<svg width="62" height="62" viewBox="0 0 62 62" fill="none" xmlns="http://www.w3.org/2000/svg">
<g filter="url(#filter0_d_1_158)">
<circle cx="31" cy="31" r="20.5" stroke="#ABB9BA"/>
<path d="M42.8743 22.8025H40.5309V20.2412C40.5309 19.8045 40.2062 19.45 39.8061 19.45C39.4061 19.45 39.0814 19.8045 39.0814 20.2412V22.8025H36.738C36.3379 22.8025 36.0133 23.1558 36.0133 23.5936C36.0133 24.0314 36.3379 24.3848 36.738 24.3848H39.0824V26.9418C39.0824 27.3786 39.407 27.733 39.8071 27.733C40.2072 27.733 40.5319 27.3786 40.5319 26.9418V24.3848H42.8752C43.2763 24.3848 43.6 24.0293 43.6 23.5936C43.6 23.158 43.2753 22.8025 42.8752 22.8025H42.8743ZM36.854 30.826C36.8733 28.2584 36.0983 25.9766 34.672 24.4017C33.3925 22.986 31.6609 22.2033 29.7958 22.1938H29.7833C27.9182 22.2043 26.1865 22.985 24.9071 24.4006C23.4818 25.9777 22.7067 28.2594 22.7261 30.827C22.7609 35.1869 20.8678 36.8325 20.7934 36.8958C20.5421 37.0994 20.4387 37.4549 20.5363 37.7798C20.6349 38.1047 20.9132 38.3231 21.2244 38.3231H25.7816C25.8879 40.6713 27.6563 42.55 29.8345 42.55C32.0126 42.55 33.78 40.6723 33.8873 38.3231H38.3566C38.6659 38.3231 38.9403 38.1058 39.0398 37.7851C39.1394 37.4644 39.0398 37.1068 38.7934 36.9011C38.7142 36.8336 36.8192 35.1869 36.853 30.8249L36.854 30.826ZM29.8335 40.9677C28.4555 40.9677 27.3346 39.7967 27.2302 38.322H32.4368C32.3325 39.7989 31.2115 40.9666 29.8335 40.9666V40.9677ZM22.7889 36.7407C23.4673 35.5856 24.1968 33.6773 24.1746 30.8144C24.1582 28.6392 24.768 26.8058 25.9382 25.5135C26.9461 24.3996 28.3135 23.7835 29.79 23.7772C31.2656 23.7846 32.634 24.3996 33.6409 25.5135C34.8102 26.8068 35.419 28.6392 35.4025 30.8144C35.3813 33.6773 36.1099 35.5856 36.7912 36.7407H22.7889Z" fill="#C56D48"/>
</g>
<defs>
<filter id="filter0_d_1_158" x="0" y="0" width="62" height="62" filterUnits="userSpaceOnUse" color-interpolation-filters="sRGB">
<feFlood flood-opacity="0" result="BackgroundImageFix"/>
<feColorMatrix in="SourceAlpha" type="matrix" values="0 0 0 0 0 0 0 0 0 0 0 0 0 0 0 0 0 0 127 0" result="hardAlpha"/>
<feOffset/>
<feGaussianBlur stdDeviation="5"/>
<feColorMatrix type="matrix" values="0 0 0 0 0 0 0 0 0 0 0 0 0 0 0 0 0 0 0.06 0"/>
<feBlend mode="normal" in2="BackgroundImageFix" result="effect1_dropShadow_1_158"/>
<feBlend mode="normal" in="SourceGraphic" in2="effect1_dropShadow_1_158" result="shape"/>
</filter>
</defs>
</svg>
