<svg width="14" height="15" viewBox="0 0 14 15" fill="none" xmlns="http://www.w3.org/2000/svg">
<path fill-rule="evenodd" clip-rule="evenodd" d="M6.98815 0C10.8408 0 13.9763 2.92485 13.9763 6.51717V6.51867C13.9763 7.94585 13.4923 9.29878 12.5758 10.4357L12.5742 10.4342L12.5685 10.4447C11.2597 11.9986 7.52118 14.7623 7.3628 14.8785C7.25185 14.9602 7.12 15 6.98895 15C6.8579 15 6.72605 14.9602 6.6151 14.8778C6.45672 14.7615 2.71824 11.9964 1.40937 10.444L1.40374 10.4327L1.40133 10.4342C0.484797 9.29803 0 7.9436 0 6.51717C0 2.92485 3.1355 0 6.98815 0ZM2.36047 9.75326C3.35418 10.9307 6.00408 12.9743 6.98815 13.7168V13.7153C7.97221 12.9721 10.6221 10.9292 11.6158 9.75176C12.3708 8.81356 12.7703 7.69461 12.7703 6.51717C12.7703 3.54432 10.1759 1.12494 6.98815 1.12494C3.80039 1.12494 1.20596 3.54507 1.20596 6.51942C1.20596 7.69686 1.60473 8.81581 2.36047 9.75326ZM3.94327 6.39642C3.94327 7.96234 5.30922 9.23577 6.98792 9.23577V9.23352C8.66581 9.23352 10.0326 7.96009 10.0326 6.39492C10.0326 4.82975 8.66581 3.55481 6.98792 3.55481C5.31002 3.55481 3.94327 4.8305 3.94327 6.39642ZM5.14923 6.39642C5.14923 5.45071 5.97491 4.68125 6.98792 4.68125V4.67975C8.00092 4.67975 8.8266 5.44996 8.8266 6.39567C8.8266 7.34137 8.00092 8.11008 6.98792 8.11008C5.97491 8.11008 5.14923 7.34212 5.14923 6.39642Z" fill="#394349"/>
</svg>
