<svg width="16" height="15" viewBox="0 0 16 15" fill="none" xmlns="http://www.w3.org/2000/svg">
<path fill-rule="evenodd" clip-rule="evenodd" d="M14.1664 0H1.8336C0.8224 0 0 0.76715 0 1.71042V13.2147C0 14.1579 0.8224 14.9251 1.8336 14.9251H14.1664C15.1776 14.9251 16 14.1579 16 13.2147V1.71042C16 0.76715 15.1776 0 14.1664 0ZM14.8 13.2147C14.8 13.5408 14.516 13.8057 14.1664 13.8057H1.8336C1.484 13.8057 1.2 13.5408 1.2 13.2147V3.29695C1.2 2.97084 1.4832 2.70741 1.832 2.70592H14.168C14.5168 2.70592 14.8 2.97084 14.8 3.29546V13.2147ZM4.02567 5.99616C4.59341 5.99616 5.05365 5.56682 5.05365 5.03722C5.05365 4.50761 4.59341 4.07828 4.02567 4.07828C3.45792 4.07828 2.99768 4.50761 2.99768 5.03722C2.99768 5.56682 3.45792 5.99616 4.02567 5.99616ZM5.05365 8.32519C5.05365 8.85481 4.59341 9.28415 4.02567 9.28415C3.45792 9.28415 2.99768 8.85481 2.99768 8.32519C2.99768 7.79558 3.45792 7.36624 4.02567 7.36624C4.59341 7.36624 5.05365 7.79558 5.05365 8.32519ZM11.9745 5.99616C12.5423 5.99616 13.0026 5.56682 13.0026 5.03722C13.0026 4.50761 12.5423 4.07828 11.9745 4.07828C11.4068 4.07828 10.9465 4.50761 10.9465 5.03722C10.9465 5.56682 11.4068 5.99616 11.9745 5.99616ZM13.0026 8.32519C13.0026 8.85481 12.5423 9.28415 11.9745 9.28415C11.4068 9.28415 10.9465 8.85481 10.9465 8.32519C10.9465 7.79558 11.4068 7.36624 11.9745 7.36624C12.5423 7.36624 13.0026 7.79558 13.0026 8.32519ZM7.99994 5.99616C8.5677 5.99616 9.02795 5.56682 9.02795 5.03722C9.02795 4.50761 8.5677 4.07828 7.99994 4.07828C7.43218 4.07828 6.97192 4.50761 6.97192 5.03722C6.97192 5.56682 7.43218 5.99616 7.99994 5.99616ZM9.02795 8.32519C9.02795 8.85481 8.5677 9.28415 7.99994 9.28415C7.43218 9.28415 6.97192 8.85481 6.97192 8.32519C6.97192 7.79558 7.43218 7.36624 7.99994 7.36624C8.5677 7.36624 9.02795 7.79558 9.02795 8.32519ZM4.02567 12.5154C4.59341 12.5154 5.05365 12.0861 5.05365 11.5565C5.05365 11.0269 4.59341 10.5975 4.02567 10.5975C3.45792 10.5975 2.99768 11.0269 2.99768 11.5565C2.99768 12.0861 3.45792 12.5154 4.02567 12.5154ZM9.02795 11.5565C9.02795 12.0861 8.5677 12.5154 7.99994 12.5154C7.43218 12.5154 6.97192 12.0861 6.97192 11.5565C6.97192 11.0269 7.43218 10.5975 7.99994 10.5975C8.5677 10.5975 9.02795 11.0269 9.02795 11.5565Z" fill="#394349"/>
</svg>
