<svg width="16" height="15" viewBox="0 0 16 15" fill="none" xmlns="http://www.w3.org/2000/svg">
<path fill-rule="evenodd" clip-rule="evenodd" d="M7.81859 9.51683C7.87237 9.52938 7.92777 9.53676 7.98155 9.53676L7.97995 9.53824C8.24327 9.53824 8.48571 9.37808 8.55957 9.13452C8.65028 8.8393 8.46323 8.53374 8.14211 8.4496C7.49586 8.28207 6.94274 7.93149 6.54294 7.4333C6.06688 6.84064 5.86859 6.11366 5.98901 5.38298C6.10863 4.65526 6.52929 4.01241 7.17314 3.57474L10.007 1.64989C11.338 0.745037 13.2222 1.00631 14.2056 2.22853C14.6809 2.82119 14.8784 3.54965 14.7596 4.27885C14.64 5.00731 14.2193 5.65016 13.5746 6.08709L12.3865 6.89526C12.1184 7.07682 12.0622 7.42371 12.2597 7.67022C12.4571 7.91599 12.8353 7.96839 13.1026 7.78683L14.2907 6.9794C15.1955 6.3646 15.7855 5.46417 15.9525 4.44196C16.1195 3.41975 15.8425 2.39902 15.1762 1.56723C13.7954 -0.148011 11.1558 -0.511134 9.29172 0.75537L6.45785 2.68022C5.5539 3.29502 4.96464 4.19545 4.79766 5.21766C4.63068 6.23986 4.90684 7.2606 5.57477 8.09091C6.13512 8.78911 6.91143 9.28213 7.81859 9.51683ZM0.824646 13.2152C1.64992 14.2411 2.92396 14.7836 4.21646 14.7836L4.21565 14.7821C5.08428 14.7821 5.95933 14.5363 6.70833 14.0248L9.5422 12.1C11.4079 10.832 11.8037 8.40527 10.4253 6.69002C9.86493 5.99182 9.08943 5.4988 8.18227 5.26409C7.86276 5.18438 7.52879 5.35414 7.43888 5.64936C7.34816 5.94458 7.53521 6.25014 7.85633 6.33354C8.50258 6.50034 9.05571 6.85166 9.4555 7.34911C10.4389 8.57429 10.1563 10.305 8.82531 11.2092L5.99304 13.134C4.6604 14.0381 2.77785 13.7776 1.79442 12.5546C1.31837 11.962 1.12168 11.235 1.24049 10.5043C1.36011 9.77658 1.77997 9.13373 2.42462 8.69606L3.61276 7.88789C3.88089 7.70633 3.93548 7.3587 3.73879 7.11293C3.54211 6.86716 3.16399 6.81549 2.89586 6.99632L1.70933 7.80375C0.804576 8.41856 0.214521 9.31972 0.0475398 10.3412C-0.119442 11.3627 0.15672 12.3834 0.824646 13.2152Z" fill="#394349"/>
</svg>
