<svg width="16" height="12" viewBox="0 0 16 12" fill="none" xmlns="http://www.w3.org/2000/svg">
<path d="M15.0588 5.1428H3.2128L7.25339 1.46305C7.62046 1.12876 7.62046 0.586184 7.25339 0.251038C6.88632 -0.0841078 6.29054 -0.0832506 5.92253 0.251038L0.275302 5.39394C-0.0917674 5.72823 -0.0917674 6.27081 0.275302 6.60595L5.92253 11.7489C6.10606 11.916 6.34607 12 6.58796 12C6.82985 12 7.06985 11.916 7.25339 11.7489C7.62046 11.4146 7.62046 10.872 7.25339 10.5368L3.2128 6.8571H15.0588C15.5793 6.8571 16 6.47395 16 5.99995C16 5.52594 15.5793 5.1428 15.0588 5.1428Z" fill="#394349"/>
</svg>
